<mxfile host="app.diagrams.net" agent="Mozilla/5.0 (Windows NT 10.0; Win64; x64) AppleWebKit/537.36 (KHTML, like Gecko) Chrome/134.0.0.0 Safari/537.36" version="26.1.1">
  <diagram id="VPP_System_Architecture" name="Virtual Power Plant System">
    <mxGraphModel dx="1290" dy="757" grid="1" gridSize="10" guides="1" tooltips="1" connect="1" arrows="1" fold="1" page="1" pageScale="1" pageWidth="1169" pageHeight="827" math="0" shadow="0">
      <root>
        <mxCell id="0" />
        <mxCell id="1" parent="0" />
        <mxCell id="GRMWlA0zoPIbLNnlhtU2-11" value="" style="edgeStyle=orthogonalEdgeStyle;rounded=0;orthogonalLoop=1;jettySize=auto;html=1;" edge="1" parent="1" source="ders_group" target="tvpp">
          <mxGeometry relative="1" as="geometry" />
        </mxCell>
        <mxCell id="ders_group" value="DERs" style="rounded=0;whiteSpace=wrap;html=1;fillColor=#f5f5f5;dashed=1;" parent="1" vertex="1">
          <mxGeometry x="40" y="40" width="800" height="100" as="geometry" />
        </mxCell>
        <mxCell id="prosumers" value="Prosumers" style="rounded=1;whiteSpace=wrap;html=1;fillColor=#fff3e6;strokeColor=#d79b00;" parent="1" vertex="1">
          <mxGeometry x="60" y="60" width="120" height="60" as="geometry" />
        </mxCell>
        <mxCell id="pv" value="Solar PV" style="rounded=1;whiteSpace=wrap;html=1;fillColor=#fff3e6;strokeColor=#d79b00;" parent="1" vertex="1">
          <mxGeometry x="200" y="60" width="120" height="60" as="geometry" />
        </mxCell>
        <mxCell id="wind" value="Rooftop PV" style="rounded=1;whiteSpace=wrap;html=1;fillColor=#fff3e6;strokeColor=#d79b00;" parent="1" vertex="1">
          <mxGeometry x="590" y="60" width="120" height="60" as="geometry" />
        </mxCell>
        <mxCell id="central_control" value="Central Control" style="rounded=1;whiteSpace=wrap;html=1;fillColor=#d5e8d4;strokeColor=#82b366;" parent="1" vertex="1">
          <mxGeometry x="40" y="200" width="160" height="80" as="geometry" />
        </mxCell>
        <mxCell id="GRMWlA0zoPIbLNnlhtU2-1" value="" style="edgeStyle=orthogonalEdgeStyle;rounded=0;orthogonalLoop=1;jettySize=auto;html=1;" edge="1" parent="1" source="vpp_group" target="retail">
          <mxGeometry relative="1" as="geometry" />
        </mxCell>
        <mxCell id="vpp_group" value="" style="rounded=0;whiteSpace=wrap;html=1;fillColor=#fff2cc;dashed=1;" parent="1" vertex="1">
          <mxGeometry x="280" y="180" width="400" height="120" as="geometry" />
        </mxCell>
        <mxCell id="cvpp" value="&lt;div style=&quot;font-family: Consolas, &amp;quot;Courier New&amp;quot;, monospace; line-height: 19px; white-space: pre;&quot;&gt;&lt;span&gt;&lt;font style=&quot;color: rgb(0, 0, 0);&quot;&gt;Coordinate&lt;/font&gt;&lt;/span&gt;&lt;/div&gt;&lt;div style=&quot;font-family: Consolas, &amp;quot;Courier New&amp;quot;, monospace; line-height: 19px; white-space: pre;&quot;&gt;&lt;span&gt;&lt;font style=&quot;color: rgb(0, 0, 0);&quot;&gt; Precision&lt;/font&gt;&lt;/span&gt;&lt;/div&gt;" style="rounded=1;whiteSpace=wrap;html=1;fillColor=#dae8fc;strokeColor=#6c8ebf;" parent="1" vertex="1">
          <mxGeometry x="300" y="200" width="100" height="80" as="geometry" />
        </mxCell>
        <mxCell id="tvpp" value="&lt;div style=&quot;font-family: Consolas, &amp;quot;Courier New&amp;quot;, monospace; line-height: 19px; white-space: pre;&quot;&gt;&lt;span&gt;&lt;font style=&quot;color: rgb(0, 0, 0);&quot;&gt;Irradiance &lt;/font&gt;&lt;/span&gt;&lt;/div&gt;&lt;div style=&quot;font-family: Consolas, &amp;quot;Courier New&amp;quot;, monospace; line-height: 19px; white-space: pre;&quot;&gt;&lt;span&gt;&lt;font style=&quot;color: rgb(0, 0, 0);&quot;&gt;Correlation&lt;/font&gt;&lt;/span&gt;&lt;/div&gt;" style="rounded=1;whiteSpace=wrap;html=1;fillColor=#dae8fc;strokeColor=#6c8ebf;" parent="1" vertex="1">
          <mxGeometry x="420" y="200" width="100" height="80" as="geometry" />
        </mxCell>
        <mxCell id="market_group" value="Electricity Market" style="rounded=0;whiteSpace=wrap;html=1;fillColor=#ffe6cc;dashed=1;" parent="1" vertex="1">
          <mxGeometry x="280" y="360" width="400" height="120" as="geometry" />
        </mxCell>
        <mxCell id="wholesale" value="Wholesale Market" style="rounded=1;whiteSpace=wrap;html=1;fillColor=#dae8fc;strokeColor=#6c8ebf;" parent="1" vertex="1">
          <mxGeometry x="300" y="380" width="160" height="40" as="geometry" />
        </mxCell>
        <mxCell id="retail" value="Retail Market" style="rounded=1;whiteSpace=wrap;html=1;fillColor=#dae8fc;strokeColor=#6c8ebf;" parent="1" vertex="1">
          <mxGeometry x="500" y="380" width="160" height="40" as="geometry" />
        </mxCell>
        <mxCell id="ancillary" value="Ancillary Services Market" style="rounded=1;whiteSpace=wrap;html=1;fillColor=#dae8fc;strokeColor=#6c8ebf;" parent="1" vertex="1">
          <mxGeometry x="300" y="430" width="160" height="40" as="geometry" />
        </mxCell>
        <mxCell id="p2p" value="P2P Energy Market" style="rounded=1;whiteSpace=wrap;html=1;fillColor=#dae8fc;strokeColor=#6c8ebf;" parent="1" vertex="1">
          <mxGeometry x="500" y="430" width="160" height="40" as="geometry" />
        </mxCell>
        <mxCell id="blockchain_group" value="Blockchain" style="rounded=0;whiteSpace=wrap;html=1;fillColor=#e1d5e7;dashed=1;" parent="1" vertex="1">
          <mxGeometry x="40" y="520" width="800" height="100" as="geometry" />
        </mxCell>
        <mxCell id="econ_params" value="Geolocation IoT" style="edgeStyle=orthogonalEdgeStyle;rounded=0;html=1;exitX=0.5;exitY=1;entryX=0.25;entryY=0;endArrow=classic;endFill=1;strokeColor=#6666FF;" parent="1" source="ders_group" target="cvpp" edge="1">
          <mxGeometry x="0.0286" y="10" relative="1" as="geometry">
            <Array as="points">
              <mxPoint x="440" y="170" />
              <mxPoint x="325" y="170" />
            </Array>
            <mxPoint as="offset" />
          </mxGeometry>
        </mxCell>
        <mxCell id="demand_response" value="Demand Response" style="edgeStyle=orthogonalEdgeStyle;rounded=0;html=1;exitX=1;exitY=0.25;entryX=0;entryY=0.25;endArrow=classic;endFill=1;strokeColor=#009900;" parent="1" source="central_control" target="market_group" edge="1">
          <mxGeometry relative="1" as="geometry" />
        </mxCell>
        <mxCell id="load_forecast" value="Load Forecast" style="edgeStyle=orthogonalEdgeStyle;rounded=0;html=1;exitX=1;exitY=0.75;entryX=0;entryY=0.75;endArrow=classic;endFill=1;strokeColor=#009900;" parent="1" source="central_control" target="market_group" edge="1">
          <mxGeometry relative="1" as="geometry" />
        </mxCell>
        <mxCell id="aggregators" value="Aggregators" style="rounded=1;whiteSpace=wrap;html=1;fillColor=#f5f5f5;dashed=1;" parent="1" vertex="1">
          <mxGeometry x="40" y="360" width="160" height="120" as="geometry" />
        </mxCell>
        <mxCell id="infra_planning" value="Infrastructure Planning" style="edgeStyle=orthogonalEdgeStyle;rounded=0;html=1;exitX=1;exitY=0.5;entryX=0;entryY=0.5;endArrow=classic;endFill=1;strokeColor=#6666FF;" parent="1" source="aggregators" target="market_group" edge="1">
          <mxGeometry relative="1" as="geometry">
            <Array as="points">
              <mxPoint x="240" y="420" />
              <mxPoint x="240" y="440" />
              <mxPoint x="280" y="440" />
            </Array>
          </mxGeometry>
        </mxCell>
        <mxCell id="block_gen" value="Block Generation" style="rounded=1;whiteSpace=wrap;html=1;fillColor=#e1d5e7;strokeColor=#9673a6;" parent="1" vertex="1">
          <mxGeometry x="300" y="540" width="120" height="60" as="geometry" />
        </mxCell>
        <mxCell id="new_block" value="Adding New Block to Block Chain" style="rounded=1;whiteSpace=wrap;html=1;fillColor=#e1d5e7;strokeColor=#9673a6;" parent="1" vertex="1">
          <mxGeometry x="460" y="540" width="120" height="60" as="geometry" />
        </mxCell>
        <mxCell id="cloud_group" value="Cloud Computing" style="rounded=0;whiteSpace=wrap;html=1;fillColor=#f8cecc;dashed=1;" parent="1" vertex="1">
          <mxGeometry x="620" y="520" width="200" height="100" as="geometry" />
        </mxCell>
        <mxCell id="prosumer_detect" value="Prosumer Level Detection" style="rounded=1;whiteSpace=wrap;html=1;fillColor=#f8cecc;strokeColor=#b85450;" parent="1" vertex="1">
          <mxGeometry x="640" y="540" width="80" height="60" as="geometry" />
        </mxCell>
        <mxCell id="unusual_data" value="Unusual Data Detection" style="rounded=1;whiteSpace=wrap;html=1;fillColor=#f8cecc;strokeColor=#b85450;" parent="1" vertex="1">
          <mxGeometry x="730" y="540" width="80" height="60" as="geometry" />
    </mxCell>
        <mxCell id="data_flow_legend" value="Data &amp; Current Link&#xa;Data Link&#xa;Internal Data Link" style="text;strokeColor=none;fillColor=none;align=left;verticalAlign=middle;spacingLeft=4;spacingRight=4;overflow=hidden;points=[[0,0.5],[1,0.5]];portConstraint=eastwest;rotatable=0;" parent="1" vertex="1">
          <mxGeometry x="40" y="640" width="140" height="60" as="geometry" />
    </mxCell>
        <mxCell id="purple_line" value="" style="endArrow=none;html=1;strokeWidth=2;strokeColor=#6666FF;" parent="1" edge="1">
          <mxGeometry width="50" height="50" relative="1" as="geometry">
            <mxPoint x="40" y="650" as="sourcePoint" />
            <mxPoint x="80" y="650" as="targetPoint" />
          </mxGeometry>
    </mxCell>
        <mxCell id="green_line" value="" style="endArrow=none;html=1;strokeWidth=2;strokeColor=#009900;" parent="1" edge="1">
          <mxGeometry width="50" height="50" relative="1" as="geometry">
            <mxPoint x="40" y="670" as="sourcePoint" />
            <mxPoint x="80" y="670" as="targetPoint" />
          </mxGeometry>
    </mxCell>
        <mxCell id="orange_line" value="" style="endArrow=none;html=1;strokeWidth=2;strokeColor=#FF6600;" parent="1" edge="1">
          <mxGeometry width="50" height="50" relative="1" as="geometry">
            <mxPoint x="40" y="690" as="sourcePoint" />
            <mxPoint x="80" y="690" as="targetPoint" />
          </mxGeometry>
    </mxCell>
        <mxCell id="GRMWlA0zoPIbLNnlhtU2-2" value="&lt;div style=&quot;font-family: Consolas, &amp;quot;Courier New&amp;quot;, monospace; line-height: 19px; white-space: pre;&quot;&gt;&lt;div style=&quot;line-height: 19px;&quot;&gt;&lt;font&gt;Shadow &lt;/font&gt;&lt;/div&gt;&lt;div style=&quot;line-height: 19px;&quot;&gt;&lt;font&gt;Analysis&lt;/font&gt;&lt;/div&gt;&lt;/div&gt;" style="rounded=1;whiteSpace=wrap;html=1;fillColor=#dae8fc;strokeColor=#6c8ebf;arcSize=20;" vertex="1" parent="1">
          <mxGeometry x="550" y="200" width="100" height="80" as="geometry" />
    </mxCell>
        <mxCell id="GRMWlA0zoPIbLNnlhtU2-10" value="Information collection" style="edgeStyle=orthogonalEdgeStyle;rounded=0;html=1;entryX=0.5;entryY=0;endArrow=classic;endFill=1;strokeColor=#6666FF;entryDx=0;entryDy=0;" edge="1" parent="1" target="GRMWlA0zoPIbLNnlhtU2-2">
          <mxGeometry x="0.0286" y="10" relative="1" as="geometry">
            <mxPoint x="470" y="170" as="sourcePoint" />
            <mxPoint x="505" y="220" as="targetPoint" />
            <mxPoint as="offset" />
          </mxGeometry>
    </mxCell>
      </root>
    </mxGraphModel>
  </diagram>
</mxfile>
